<svg xmlns="http://www.w3.org/2000/svg" xmlns:svg="http://www.w3.org/2000/svg" id="svg1412" width="48" height="48" version="1.1" viewBox="0 0 48 48"><metadata id="metadata1418"/><defs id="defs1416"><linearGradient id="linearGradient3462" x1="242.458" x2="242.458" y1="422.283" y2="368.737" gradientUnits="userSpaceOnUse"><stop style="stop-color:#473788" id="stop46-2" offset=".303"/><stop style="stop-color:#2c2255" id="stop48-6" offset=".872"/></linearGradient><linearGradient id="linearGradient3466" x1="242.458" x2="242.458" y1="422.292" y2="368.734" gradientUnits="userSpaceOnUse"><stop style="stop-color:#473788" id="stop53-6" offset=".303"/><stop style="stop-color:#2c2255" id="stop55-8" offset=".872"/></linearGradient><linearGradient id="linearGradient3470" x1="242.458" x2="242.458" y1="422.286" y2="368.736" gradientUnits="userSpaceOnUse"><stop style="stop-color:#473788" id="stop60-3" offset=".303"/><stop style="stop-color:#2c2255" id="stop62-4" offset=".863"/></linearGradient></defs><g id="g1420"><g id="g2207" transform="matrix(0.99893516,0,0,0.99893516,47.95795,3.4517308)"><g style="stroke-width:.983117" id="g139" transform="matrix(1.0678037,0,0,1.0572816,-79.316579,-1.6972965)"><path id="path32" d="m 41.680839,26.851877 h -6.90011 c 0.91344,3.13415 2.60886,5.94303 5.09022,8.42496 3.95636,3.95636 8.71509,5.93397 14.27903,5.93397 1.11234,0 2.18954,-0.0827 3.23671,-0.24083 4.19039,-0.63295 7.86002,-2.52726 11.00323,-5.69314 2.49836,-2.48193 4.20568,-5.29081 5.12649,-8.42496 h -2.79982 -4.09462 z" style="fill:#2c2255;stroke-width:.983117"/><g id="g38" transform="matrix(0.56665072,0,0,0.56665072,-83.237883,-195.3398)" style="stroke-width:1.73496"><path id="path34" d="m 213.736,375.576 h -6.361 c -0.233,1.397 -0.391,2.824 -0.463,4.287 h 7.561 3.792 54.741 4.998 c -0.073,-1.463 -0.232,-2.89 -0.467,-4.287" style="fill:#2c2255;stroke-width:3.06178"/><path id="path36" d="m 206.912,383.845 c 0.072,1.464 0.23,2.891 0.463,4.288 h 6.613 5.012 53.558 4.979 c 0.234,-1.397 0.395,-2.824 0.467,-4.288" style="fill:#2c2255;stroke-width:3.06178"/></g><path id="path40" d="m 73.517539,15.224207 c -0.92024,-3.14265 -2.62813,-5.9639998 -5.12762,-8.4640598 -3.13528,-3.13585 -6.79414,-5.01713 -10.97093,-5.65008 -1.0568,-0.16035995 -2.14477,-0.24421995 -3.26901,-0.24421995 -5.56394,0 -10.3221,1.96513995 -14.27903,5.89429995 -2.48306,2.49949 -4.17905,5.3214098 -5.09192,8.4640598 z" style="fill:#2c2255;stroke-width:.983117"/><g id="g44" transform="matrix(0.56665072,0,0,0.56665072,-83.237883,-195.3398)" style="stroke-width:1.73496"><path id="path42" d="m 204.797,381.855 c 0,-18.78 14.104,-34.384 32.453,-37.128 -0.455,-0.017 -0.913,-0.035 -1.372,-0.035 -20.591,0 -37.284,16.639 -37.284,37.163 0,20.524 16.693,37.163 37.284,37.163 0.461,0 0.918,-0.019 1.375,-0.034 -18.351,-2.744 -32.456,-18.348 -32.456,-37.129 z" style="fill:#f7941e;stroke-width:3.06178"/></g><g id="g67" transform="matrix(0.56665072,0,0,0.56665072,-83.237883,-195.3398)" style="stroke-width:1.73496"><linearGradient id="SVGID_1_" x1="242.458" x2="242.458" y1="422.283" y2="368.737" gradientUnits="userSpaceOnUse"><stop style="stop-color:#473788" id="stop46" offset=".303"/><stop style="stop-color:#2c2255" id="stop48" offset=".872"/></linearGradient><path id="path51" d="m 266.65,379.863 c -0.119,-1.47 -0.366,-2.903 -0.736,-4.287 h -46.913 c -0.37,1.384 -0.617,2.817 -0.737,4.287 z" style="fill:url(#SVGID_1_);stroke-width:3.06178"/><linearGradient id="SVGID_2_" x1="242.458" x2="242.458" y1="422.292" y2="368.734" gradientUnits="userSpaceOnUse"><stop style="stop-color:#473788" id="stop53" offset=".303"/><stop style="stop-color:#2c2255" id="stop55" offset=".872"/></linearGradient><path id="path58" d="m 266.65,383.845 h -48.386 c 0.12,1.471 0.366,2.903 0.736,4.288 h 46.914 c 0.371,-1.385 0.617,-2.818 0.736,-4.288 z" style="fill:url(#SVGID_2_);stroke-width:3.06178"/><linearGradient id="SVGID_3_" x1="242.458" x2="242.458" y1="422.286" y2="368.736" gradientUnits="userSpaceOnUse"><stop style="stop-color:#473788" id="stop60" offset=".303"/><stop style="stop-color:#2c2255" id="stop62" offset=".863"/></linearGradient><path id="path65" d="m 242.458,406.137 c 9.742,0 18.14,-5.74 22.008,-14.022 H 220.45 c 3.867,8.281 12.265,14.022 22.008,14.022 z" style="fill:url(#SVGID_3_);stroke-width:3.06178"/></g><g id="g75" transform="matrix(0.56665072,0,0,0.56665072,-83.237883,-195.3398)" style="stroke-width:1.73496"><path id="path69" d="m 214.679,383.845 h 3.552 48.51 6.373 4.841 c 0.034,-0.633 0.053,-1.271 0.053,-1.913 0,-0.694 -0.025,-1.383 -0.064,-2.068 h -4.829 -6.373 -48.51 -3.802 -7.517 c -0.039,0.686 -0.064,1.374 -0.064,2.068 0,0.643 0.019,1.28 0.052,1.913 z" style="fill:#fff;stroke-width:3.06178"/><path id="path71" d="m 220.308,371.594 h -12.037 c -0.396,1.297 -0.65,2.627 -0.896,3.982 h 6.2 5.279 47.035 6.662 4.761 c -0.245,-1.355 -0.562,-2.686 -0.957,-3.982" style="fill:#fff;stroke-width:3.06178"/><path id="path73" d="m 272.739,388.133 h -6.661 -47.035 -5.027 -6.642 c 0.239,1.354 0.51,2.685 0.899,3.981 h 12.222 44.129 7.244 4.719 c 0.389,-1.297 0.701,-2.627 0.941,-3.981 z" style="fill:#fff;stroke-width:3.06178"/></g></g></g></g></svg>